<svg width="75" height="100" viewBox="0 0 75 100" fill="none" xmlns="http://www.w3.org/2000/svg">
<path d="M41.5181 9.375V50H49.5544V11.4648C53.5558 14.1602 56.2513 19.2187 56.2513 25V50H64.2875V25C64.2875 11.1914 54.6943 0 42.8575 0H32.1425C20.3057 0 10.7125 11.1914 10.7125 25V50H18.7487V25C18.7487 19.2187 21.4442 14.1602 25.4456 11.4648V50H33.4819V9.375H41.5181ZM8.0337 56.25C6.00789 56.25 4.1495 57.5781 3.24543 59.707L0.566671 65.957C-0.27044 67.8906 -0.169987 70.1953 0.801062 72.0312C1.77211 73.8672 3.49656 75 5.35494 75V93.75C5.35494 97.207 7.74908 100 10.7125 100C13.6758 100 16.07 97.207 16.07 93.75V75H58.93V93.75C58.93 97.207 61.3242 100 64.2875 100C67.2509 100 69.6451 97.207 69.6451 93.75V75C71.5034 75 73.2279 73.8867 74.1989 72.0312C75.17 70.1758 75.2704 67.8906 74.4333 65.957L71.7546 59.707C70.8505 57.5781 68.9921 56.25 66.9663 56.25H8.0337Z" fill="#37806B"/>
</svg>
