<svg width="75" height="100" viewBox="0 0 75 100" fill="none" xmlns="http://www.w3.org/2000/svg">
<g clip-path="url(#clip0_63_23)">
<path d="M3.91804 4.23595e-07H71.0735C71.588 -0.000234693 72.0975 0.0974087 72.5728 0.287332C73.0481 0.477256 73.4798 0.755724 73.8432 1.10677C74.2079 1.45535 74.4979 1.86978 74.6964 2.32639C74.8948 2.78301 74.998 3.27284 75 3.7679V96.7041H71.9602V99.9593H47.7595V96.7041H27.232V99.9593H3.03986V96.7041H0V3.77604C0.000405844 3.28148 0.10205 2.79186 0.29911 2.33521C0.49617 1.87857 0.784774 1.46389 1.14839 1.11491C1.51079 0.76203 1.94213 0.481824 2.4175 0.290465C2.89287 0.0991064 3.40286 0.000385345 3.91804 4.23595e-07ZM47.5315 46.3867C47.563 45.9401 47.7693 45.5217 48.1087 45.2161C48.4481 44.9106 48.8952 44.7406 49.3597 44.7406C49.8241 44.7406 50.2712 44.9106 50.6106 45.2161C50.95 45.5217 51.1563 45.9401 51.1878 46.3867V54.6794C51.2048 54.9208 51.1702 55.163 51.086 55.391C51.0019 55.619 50.87 55.8279 50.6986 56.0048C50.5271 56.1816 50.3198 56.3226 50.0895 56.419C49.8592 56.5154 49.6108 56.5651 49.3597 56.5651C49.1086 56.5651 48.8601 56.5154 48.6298 56.419C48.3995 56.3226 48.1922 56.1816 48.0208 56.0048C47.8493 55.8279 47.7174 55.619 47.6333 55.391C47.5491 55.163 47.5145 54.9208 47.5315 54.6794V46.3867ZM39.3239 3.52376V93.1803H71.3353V3.77604C71.3348 3.71066 71.3109 3.64744 71.2677 3.59701C71.214 3.55128 71.1452 3.52534 71.0735 3.52376H39.3239ZM35.6676 93.1803V3.52376H3.91804C3.84861 3.52376 3.78203 3.55034 3.73294 3.59765C3.68385 3.64497 3.65627 3.70913 3.65627 3.77604V93.1803H35.6676Z" fill="#37806B"/>
</g>
<defs>
<clipPath id="clip0_63_23">
<rect width="75" height="100" fill="white"/>
</clipPath>
</defs>
</svg>
