<svg width="100" height="75" viewBox="0 0 100 75" fill="none" xmlns="http://www.w3.org/2000/svg">
<path d="M10 21.4286C10 9.59263 18.9531 0 30 0H70C81.0469 0 90 9.59263 90 21.4286V27.0536C84.2969 28.2924 80 33.6998 80 40.1786V48.2143H20V40.1786C20 33.6998 15.7031 28.2924 10 27.0536V21.4286ZM85 40.1786C85 36.6797 87.0937 33.6998 90 32.5949C90.7812 32.2935 91.625 32.1429 92.5 32.1429C96.6406 32.1429 100 35.7422 100 40.1786V69.6429C100 72.606 97.7656 75 95 75H90C87.2344 75 85 72.606 85 69.6429H15C15 72.606 12.7656 75 10 75H5C2.23437 75 0 72.606 0 69.6429V40.1786C0 35.7422 3.35938 32.1429 7.5 32.1429C8.375 32.1429 9.21875 32.3103 10 32.5949C12.9063 33.6998 15 36.6797 15 40.1786V48.2143V53.5714H20H80H85V48.2143V40.1786Z" fill="#37806B"/>
</svg>
