<svg xmlns="http://www.w3.org/2000/svg" xmlns:xlink="http://www.w3.org/1999/xlink" version="1.1" width="256" height="256" viewBox="0 0 256 256" xml:space="preserve">

<defs>
</defs>
<g style="stroke: none; stroke-width: 0; stroke-dasharray: none; stroke-linecap: butt; stroke-linejoin: miter; stroke-miterlimit: 10; fill: none; fill-rule: nonzero; opacity: 1;" transform="translate(1.4065934065934016 1.4065934065934016) scale(2.81 2.81)" >
	<path d="M 90 29.399 v -1.484 C 90 14.17 78.818 2.988 65.073 2.988 H 24.927 C 11.182 2.988 0 14.17 0 27.916 v 1.484 h 1.484 l 38.662 0 v 42.924 h -5.182 c -7.281 0 -13.205 5.924 -13.205 13.206 v 1.484 h 46.484 v -1.484 c 0 -7.281 -5.924 -13.206 -13.206 -13.206 h -5.182 V 29.399 l 21.835 0 v 11.448 c -3.084 0.681 -5.4 3.432 -5.4 6.718 c 0 3.796 3.088 6.883 6.883 6.883 c 3.795 0 6.882 -3.088 6.882 -6.883 c 0 -3.285 -2.316 -6.037 -5.399 -6.718 V 29.399 L 90 29.399 z M 77.089 47.564 c 0 2.16 -1.757 3.916 -3.915 3.916 c -2.16 0 -3.916 -1.757 -3.916 -3.916 c 0 -2.159 1.757 -3.916 3.916 -3.916 C 75.332 43.648 77.089 45.405 77.089 47.564 z M 24.927 5.955 h 40.146 c 11.61 0 21.145 9.058 21.911 20.477 l -83.967 0 C 3.783 15.013 13.317 5.955 24.927 5.955 z M 55.036 75.29 c 5.142 0 9.411 3.81 10.132 8.755 H 24.832 c 0.721 -4.945 4.989 -8.755 10.131 -8.755 h 8.149 V 29.399 h 3.775 V 75.29 H 55.036 z" style="stroke: none; stroke-width: 1; stroke-dasharray: none; stroke-linecap: butt; stroke-linejoin: miter; stroke-miterlimit: 10; fill: rgb(0,0,0); fill-rule: nonzero; opacity: 1;" transform=" matrix(1 0 0 1 0 0) " stroke-linecap="round" />
</g>
</svg>