<svg width="100" height="100" viewBox="0 0 100 100" fill="none" xmlns="http://www.w3.org/2000/svg">
<path d="M26.12 5.97022H73.08C73.7062 5.96996 74.319 6.19536 74.8443 6.61918C75.3696 7.04299 75.7849 7.64704 76.04 8.35827L92.48 56.1195C92.6921 56.7239 92.7802 57.3845 92.7362 58.0417C92.6922 58.699 92.5176 59.3323 92.228 59.8848C91.9385 60.4373 91.5431 60.8917 91.0774 61.2071C90.6117 61.5225 90.0903 61.689 89.56 61.6916H9.64004C9.10979 61.689 8.58838 61.5225 8.12268 61.2071C7.65698 60.8917 7.26159 60.4373 6.97205 59.8848C6.68251 59.3323 6.5079 58.699 6.46391 58.0417C6.41992 57.3845 6.50794 56.7239 6.72004 56.1195L23.16 8.35827C23.4151 7.64704 23.8305 7.04299 24.3558 6.61918C24.8811 6.19536 25.4939 5.96996 26.12 5.97022Z" stroke="#37806B" stroke-width="8" stroke-linecap="round" stroke-linejoin="round"/>
<path d="M49.6 61.6917V93.5324" stroke="#37806B" stroke-width="8" stroke-linecap="round" stroke-linejoin="round"/>
<path d="M36.8 93.5322H62.4" stroke="#37806B" stroke-width="8" stroke-linecap="round" stroke-linejoin="round"/>
<path d="M78.4 61.6917V73.6917" stroke="#37806B" stroke-width="8" stroke-linecap="round" stroke-linejoin="round"/>
</svg>
